PathFileType	4	(x/y/z)	S02_PSF_T03
DataRate	CameraRate	NumFrames	NumMarkers	Units	OrigDataRate	OrigDataStartFrame	OrigNumFrames
240	240	9	51	mm	240	50	394
Frame#	Time	Sternum			R.Acromium			L.Acromium			Top.Head			R.ASIS			L.ASIS			R.PSIS			L.PSIS			R.Great.Tro			L.Great.Tro			R.Iliac.Crest			L.Iliac.Crest			V.Sacral			R.Thigh.Upper.Post			R.Thigh.Lower.Ant			R.Thigh.Lower.Post			R.Thigh.Upper.Ant			R.Knee.Lat			R.Knee.Med			R.Shank.Upper.Post			R.Shank.Lower.Ant			R.Shank.Lower.Post			R.Shank.Upper.Ant			R.Ankle.Lat			R.Ankle.Med			R.Heel.Upper			R.Heel.Med			R.Heel.Lat			R.Toe.Lat			R.Toe.Med			R.Toe.Tip			L.Thigh.Upper.Post			L.Thigh.Lower.Ant			L.Thigh.Lower.Post			L.Thigh.Upper.Ant			L.Knee.Lat			L.Knee.Med			L.Shank.Upper.Post			L.Shank.Lower.Ant			L.Shank.Lower.Post			L.Shank.Upper.Ant			L.Ankle.Lat			L.Ankle.Med			L.Heel.Upper			L.Heel.Med			L.Heel.Lat			L.Toe.Lat			L.Toe.Med			L.Toe.Tip			Cervical.Spine			Back			
		X1	Y1	Z1	X2	Y2	Z2	X3	Y3	Z3	X4	Y4	Z4	X5	Y5	Z5	X6	Y6	Z6	X7	Y7	Z7	X8	Y8	Z8	X9	Y9	Z9	X10	Y10	Z10	X11	Y11	Z11	X12	Y12	Z12	X13	Y13	Z13	X14	Y14	Z14	X15	Y15	Z15	X16	Y16	Z16	X17	Y17	Z17	X18	Y18	Z18	X19	Y19	Z19	X20	Y20	Z20	X21	Y21	Z21	X22	Y22	Z22	X23	Y23	Z23	X24	Y24	Z24	X25	Y25	Z25	X26	Y26	Z26	X27	Y27	Z27	X28	Y28	Z28	X29	Y29	Z29	X30	Y30	Z30	X31	Y31	Z31	X32	Y32	Z32	X33	Y33	Z33	X34	Y34	Z34	X35	Y35	Z35	X36	Y36	Z36	X37	Y37	Z37	X38	Y38	Z38	X39	Y39	Z39	X40	Y40	Z40	X41	Y41	Z41	X42	Y42	Z42	X43	Y43	Z43	X44	Y44	Z44	X45	Y45	Z45	X46	Y46	Z46	X47	Y47	Z47	X48	Y48	Z48	X49	Y49	Z49	X50	Y50	Z50	X51	Y51	Z51	

50	0.20417	-1185.3	1081.8	269.07	-1290.4	1318.3	409.56	-1303.2	1317.5	117.43	-1244	1602.3	255.41	-1223	906.52	382.87	-1204.5	911.84	173.91	-1430.9	943.22	323.76	-1438.4	957.36	250.39	-1301.8	764.97	471.89	-1302.3	813.54	79.139	NaN	NaN	NaN	-1331.3	962.65	107	-1460	903.11	275.91	-1299.2	581.45	470.09	-1235.9	499.08	453.83	-1307.7	490.52	457.55	-1228.1	588.37	462.41	-1301.7	415.23	455.09	-1294.4	396.37	305.83	-1491.7	355.78	415.21	-1525.9	251.53	402.35	-1553.1	312.15	401.78	-1472	290.93	424.56	-1607.8	240.85	388.84	-1581.2	238.83	306.31	-1635.3	298.14	329.8	-1653.9	279.59	294.39	-1681.2	290.28	359.77	-1649.4	126.91	401	-1625.8	97.397	299.22	-1596.6	57.632	358.16	-1273.9	588.56	109.3	-1177.8	535.58	125.28	-1250.6	504.58	137.83	-1210.3	621.46	98.72	-1174.3	452.02	141.68	-1186.3	456.82	278.35	-1254.1	282.01	142.44	-1189.1	194.75	168.02	-1260.7	210.59	160.79	-1191.8	268.42	149.25	-1244.1	98.441	182.03	-1236.5	94.573	262.07	-1305.7	66.917	213.7	-1297.7	41.419	247.53	-1297.7	38.699	185.91	-1130.4	35.252	164.17	-1114.5	44.284	275.41	-1052.1	60.382	230.61	-1383.7	1381.7	267.1	-1452.6	1128.3	286.63
51	0.20833	-1179.6	1082.7	269.17	-1285.4	1319.4	409.71	-1297.4	1318.3	117.21	-1238.3	1603.3	255.32	-1217.1	907.5	382.65	-1199	912.35	173.58	-1425.1	943.93	323.46	-1432.9	958.27	250.16	-1295.5	766.17	471.79	-1297.4	814.25	78.901	NaN	NaN	NaN	-1325.7	963.45	106.73	-1454.5	903.98	275.65	-1290.1	582.64	470.46	-1226.2	501.17	454.75	-1297.8	491.73	458.07	-1219.5	590.55	463.23	-1290.2	416.69	455.95	-1281	397.14	306.87	-1479.9	356.98	415.55	-1513.8	252.61	402.73	-1541.3	313.26	402.04	-1460	292.09	424.94	-1594.6	241.39	389.02	-1569.2	239.84	306.6	-1623.8	298.65	329.75	-1642.2	279.82	294.32	-1670.1	291.01	359.62	-1636.4	127.83	401.67	-1612.2	98.06	300	-1582.7	58.672	359.23	-1270.9	589.1	109.25	-1175.2	535.32	125.03	-1248.3	504.89	137.66	-1207	621.45	98.497	-1172.3	451.7	141.46	-1184.4	456.51	278.06	-1253	282.2	142.4	-1188.6	194.55	167.86	-1259.9	210.87	160.55	-1190.9	268.21	149.11	-1244	98.518	182.06	-1236.4	94.622	262.03	-1305.7	67.009	213.74	-1297.6	41.49	247.55	-1297.7	38.801	185.93	-1130.4	35.254	164.16	-1114.4	44.281	275.46	-1052.1	60.31	230.58	-1378.2	1382.6	266.75	-1447.1	1129.1	285.97
52	0.2125	-1174	1083.7	269.3	-1280.4	1320.6	409.89	-1291.7	1319.1	117	-1232.6	1604.2	255.26	-1211.3	908.51	382.46	-1193.5	912.86	173.26	-1419.3	944.73	323.16	-1427.4	959.24	249.92	-1289.3	767.43	471.7	-1292.5	814.94	78.705	NaN	NaN	NaN	-1320.1	964.22	106.45	-1448.9	904.94	275.41	-1281.1	583.91	470.81	-1216.4	503.36	455.61	-1288	493.03	458.55	-1211	592.81	464.02	-1278.8	418.26	456.75	-1267.7	398.05	307.89	-1468.2	358.07	415.84	-1501.6	253.56	403.09	-1529.4	314.19	402.29	-1447.7	293.14	425.27	-1581.4	241.73	389.17	-1557.1	240.66	306.89	-1612.4	298.84	329.69	-1630.4	279.69	294.27	-1658.9	291.34	359.45	-1623.1	128.46	402.37	-1598.2	98.522	300.77	-1568.4	59.64	360.27	-1267.9	589.66	109.23	-1172.6	535.08	124.81	-1245.9	505.22	137.52	-1203.7	621.47	98.323	-1170.4	451.41	141.29	-1182.6	456.22	277.82	-1252	282.41	142.39	-1188	194.37	167.72	-1259.2	211.14	160.31	-1190.1	268.02	148.99	-1243.9	98.606	182.09	-1236.3	94.677	262.01	-1305.6	67.108	213.77	-1297.6	41.569	247.56	-1297.7	38.913	185.95	-1130.3	35.255	164.16	-1114.4	44.275	275.52	-1052	60.241	230.56	-1372.6	1383.5	266.41	-1441.6	1130	285.29
53	0.21667	-1168.5	1084.7	269.46	-1275.4	1321.8	410.1	-1286	1320	116.82	-1227	1605.2	255.23	-1205.4	909.54	382.29	-1188	913.36	172.94	-1413.5	945.63	322.86	-1421.9	960.27	249.68	-1283.2	768.73	471.63	-1287.8	815.6	78.55	NaN	NaN	NaN	-1314.5	964.97	106.15	-1443.4	905.97	275.19	-1272.1	585.26	471.16	-1206.7	505.63	456.42	-1278.2	494.42	459	-1202.4	595.15	464.75	-1267.5	419.94	457.49	-1254.4	399.12	308.87	-1456.4	359.05	416.12	-1489.3	254.37	403.43	-1517.5	314.94	402.53	-1435.4	294.1	425.54	-1568.4	241.9	389.31	-1545.1	241.28	307.2	-1601	298.71	329.64	-1618.7	279.19	294.25	-1647.7	291.25	359.26	-1609.3	128.81	403.07	-1583.7	98.782	301.52	-1553.5	60.519	361.27	-1265	590.25	109.24	-1170	534.86	124.64	-1243.7	505.59	137.4	-1200.5	621.49	98.197	-1168.5	451.15	141.16	-1180.8	455.96	277.62	-1251	282.62	142.39	-1187.5	194.21	167.6	-1258.5	211.4	160.08	-1189.3	267.87	148.89	-1243.8	98.704	182.13	-1236.2	94.738	262	-1305.6	67.215	213.81	-1297.5	41.656	247.58	-1297.6	39.035	185.97	-1130.3	35.254	164.16	-1114.4	44.266	275.57	-1051.9	60.172	230.53	-1366.9	1384.4	266.1	-1436.1	1130.9	284.61
54	0.22083	-1162.9	1085.6	269.64	-1270.4	1323	410.32	-1280.3	1320.8	116.65	-1221.4	1606.2	255.23	-1199.6	910.6	382.12	-1182.6	913.87	172.62	-1407.7	946.63	322.58	-1416.5	961.35	249.44	-1277.1	770.08	471.56	-1283.1	816.25	78.433	NaN	NaN	NaN	-1308.8	965.7	105.84	-1438	907.07	274.99	-1263.1	586.69	471.48	-1197	507.99	457.17	-1268.4	495.9	459.42	-1193.9	597.56	465.44	-1256.2	421.71	458.17	-1241.4	400.36	309.81	-1444.7	359.9	416.36	-1476.9	255.03	403.75	-1505.6	315.49	402.77	-1422.9	294.94	425.77	-1555.4	241.91	389.43	-1533	241.7	307.52	-1589.7	298.25	329.6	-1607	278.34	294.26	-1636.4	290.74	359.07	-1595.3	128.89	403.79	-1569	98.843	302.25	-1538.2	61.295	362.25	-1262.2	590.86	109.28	-1167.5	534.65	124.52	-1241.5	505.97	137.32	-1197.3	621.53	98.115	-1166.7	450.93	141.06	-1178.9	455.74	277.46	-1250	282.85	142.41	-1187	194.09	167.49	-1257.8	211.63	159.86	-1188.6	267.74	148.81	-1243.6	98.814	182.17	-1236.1	94.807	262	-1305.5	67.329	213.85	-1297.5	41.754	247.6	-1297.6	39.168	185.99	-1130.3	35.252	164.16	-1114.3	44.253	275.63	-1051.9	60.104	230.5	-1361.3	1385.3	265.81	-1430.6	1131.9	283.92
55	0.225	-1157.4	1086.6	269.84	-1265.5	1324.2	410.56	-1274.7	1321.7	116.5	-1215.8	1607.2	255.25	-1193.9	911.69	381.95	-1177.2	914.39	172.31	-1401.9	947.71	322.31	-1411	962.48	249.21	-1271.1	771.47	471.5	-1278.5	816.87	78.354	NaN	NaN	NaN	-1303.1	966.4	105.52	-1432.5	908.23	274.83	-1254.1	588.19	471.8	-1187.3	510.43	457.85	-1258.5	497.47	459.8	-1185.4	600.02	466.08	-1245	423.57	458.79	-1228.4	401.75	310.7	-1433	360.63	416.6	-1464.4	255.55	404.04	-1493.7	315.84	403	-1410.3	295.66	425.96	-1542.7	241.77	389.54	-1520.8	241.91	307.83	-1578.4	297.48	329.56	-1595.3	277.13	294.29	-1625	289.81	358.89	-1580.9	128.69	404.52	-1553.8	98.707	302.97	-1522.5	61.958	363.2	-1259.4	591.49	109.35	-1165.1	534.46	124.42	-1239.3	506.39	137.27	-1194.2	621.59	98.074	-1165	450.73	140.98	-1177.1	455.55	277.34	-1249.1	283.09	142.45	-1186.5	193.98	167.4	-1257.2	211.83	159.66	-1187.8	267.64	148.74	-1243.5	98.935	182.22	-1236	94.884	262	-1305.4	67.45	213.89	-1297.5	41.862	247.61	-1297.6	39.31	186.01	-1130.3	35.247	164.16	-1114.3	44.239	275.68	-1051.8	60.036	230.47	-1355.6	1386.3	265.55	-1425.2	1132.8	283.24
56	0.22917	-1152	1087.6	270.05	-1260.5	1325.5	410.8	-1269.1	1322.6	116.37	-1210.2	1608.3	255.3	-1188.1	912.82	381.76	-1171.8	914.92	171.99	-1396.2	948.87	322.05	-1405.6	963.65	248.97	-1265.1	772.9	471.43	-1274	817.48	78.31	NaN	NaN	NaN	-1297.5	967.1	105.2	-1427	909.46	274.69	-1245.2	589.77	472.1	-1177.6	512.93	458.47	-1248.7	499.12	460.16	-1176.9	602.55	466.66	-1233.8	425.51	459.35	-1215.7	403.32	311.53	-1421.3	361.21	416.81	-1451.8	255.91	404.32	-1481.7	315.99	403.24	-1397.7	296.27	426.12	-1530.2	241.47	389.64	-1508.6	241.91	308.14	-1567.1	296.38	329.53	-1583.6	275.58	294.35	-1613.5	288.46	358.7	-1566.3	128.22	405.27	-1538.4	98.377	303.68	-1506.4	62.503	364.13	-1256.6	592.14	109.46	-1162.6	534.29	124.37	-1237.1	506.83	137.25	-1191.1	621.66	98.071	-1163.4	450.57	140.94	-1175.3	455.38	277.25	-1248.2	283.35	142.49	-1186	193.91	167.33	-1256.7	211.99	159.5	-1187.1	267.57	148.69	-1243.4	99.067	182.27	-1235.8	94.973	262.01	-1305.4	67.58	213.93	-1297.4	41.983	247.62	-1297.5	39.461	186.02	-1130.3	35.242	164.17	-1114.2	44.223	275.74	-1051.7	59.966	230.44	-1349.9	1387.3	265.3	-1419.8	1133.8	282.55
57	0.23333	-1146.5	1088.6	270.27	-1255.5	1326.8	411.03	-1263.4	1323.5	116.25	-1204.6	1609.3	255.37	-1182.4	913.99	381.55	-1166.5	915.47	171.66	-1390.4	950.1	321.81	-1400.1	964.86	248.75	-1259.2	774.37	471.36	-1269.5	818.08	78.3	NaN	NaN	NaN	-1291.8	967.78	104.87	-1421.6	910.73	274.59	-1236.3	591.41	472.4	-1167.9	515.5	459.02	-1238.9	500.84	460.48	-1168.3	605.12	467.18	-1222.7	427.51	459.84	-1203.2	405.04	312.29	-1409.7	361.65	417.02	-1439.2	256.11	404.58	-1469.7	315.92	403.47	-1385.1	296.77	426.25	-1517.8	241.03	389.74	-1496.2	241.7	308.44	-1555.9	294.98	329.51	-1571.8	273.68	294.44	-1601.9	286.7	358.54	-1551.4	127.5	406.02	-1522.7	97.857	304.39	-1490	62.925	365.05	-1253.8	592.81	109.59	-1160.3	534.12	124.34	-1235	507.3	137.27	-1188	621.74	98.103	-1161.7	450.44	140.91	-1173.4	455.25	277.19	-1247.3	283.62	142.55	-1185.5	193.87	167.26	NaN	NaN	NaN	-1186.4	267.53	148.65	-1243.2	99.21	182.33	-1235.7	95.074	262.03	-1305.3	67.718	213.97	-1297.4	42.117	247.63	-1297.5	39.621	186.04	-1130.3	35.235	164.18	-1114.2	44.205	275.79	-1051.6	59.893	230.41	-1344.1	1388.2	265.08	-1414.3	1134.8	281.86
58	0.2375	-1141.1	1089.6	270.49	-1250.6	1328	411.25	-1257.9	1324.4	116.15	-1199	1610.4	255.46	-1176.7	915.2	381.3	-1161.1	916.04	171.32	-1384.7	951.4	321.59	-1394.7	966.1	248.55	-1253.3	775.86	471.29	-1265.2	818.67	78.321	NaN	NaN	NaN	-1286.2	968.45	104.55	-1416.1	912.05	274.52	-1227.5	593.11	472.68	-1158.3	518.11	459.5	-1229.2	502.63	460.78	-1159.8	607.72	467.64	-1211.6	429.56	460.27	-1191	406.93	312.99	-1398.2	361.94	417.22	-1426.5	256.15	404.82	-1457.6	315.65	403.71	-1372.4	297.16	426.36	-1505.6	240.42	389.83	-1483.8	241.27	308.73	-1544.6	293.26	329.49	-1559.9	271.45	294.55	-1590.1	284.52	358.39	-1536.3	126.54	406.77	-1506.8	97.155	305.1	-1473.3	63.226	365.97	-1251	593.49	109.76	-1157.9	533.98	124.34	-1233	507.8	137.33	-1184.9	621.84	98.166	-1160.2	450.33	140.91	-1171.5	455.15	277.17	-1246.5	283.91	142.61	-1185	193.85	167.22	NaN	NaN	NaN	-1185.7	267.51	148.63	-1243.1	99.363	182.38	-1235.6	95.19	262.05	-1305.2	67.864	214.01	-1297.4	42.264	247.63	-1297.4	39.789	186.06	-1130.3	35.227	164.18	-1114.2	44.187	275.84	-1051.6	59.819	230.39	-1338.3	1389.2	264.88	-1409	1135.9	281.18
